<?xml version="1.0" encoding="UTF-8"?>
<svg id="b" data-name="Trumpet-Flat--Streamline-Fluent-Emoji.svg" xmlns="http://www.w3.org/2000/svg" width="128" height="128" viewBox="0 0 128 128">
  <path d="M91.326,64h15.207c2.5,0,4.81-1.334,6.06-3.499l7.604-13.17c1.25-2.165,1.25-4.832,0-6.997l-7.604-13.17c-1.25-2.165-3.56-3.499-6.06-3.499h-15.207c-2.5,0-4.81,1.334-6.06,3.499l-7.604,13.17c-1.25,2.165-1.25,4.832,0,6.997l7.604,13.17c1.25,2.165,3.56,3.499,6.06,3.499Z" fill="#fc0" stroke-width="0"/>
  <path d="M56.396,84.166h15.207c2.5,0,4.81-1.334,6.06-3.499l7.604-13.17c1.25-2.165,1.25-4.832,0-6.997l-7.604-13.17c-1.25-2.165-3.56-3.499-6.06-3.499h-15.207c-2.5,0-4.81,1.334-6.06,3.499l-7.604,13.17c-1.25,2.165-1.25,4.832,0,6.997l7.604,13.17c1.25,2.165,3.56,3.499,6.06,3.499Z" fill="#d9dbdd" stroke-width="0"/>
  <path d="M91.326,104.333h15.207c2.5,0,4.81-1.334,6.06-3.499l7.604-13.17c1.25-2.165,1.25-4.832,0-6.997l-7.604-13.17c-1.25-2.165-3.56-3.499-6.06-3.499h-15.207c-2.5,0-4.81,1.334-6.06,3.499l-7.604,13.17c-1.25,2.165-1.25,4.832,0,6.997l7.604,13.17c1.25,2.165,3.56,3.499,6.06,3.499Z" fill="#fff" stroke-width="0"/>
  <path d="M56.396,124.5h15.207c2.5,0,4.81-1.334,6.06-3.499l7.604-13.17c1.25-2.165,1.25-4.832,0-6.997l-7.604-13.17c-1.25-2.165-3.56-3.499-6.06-3.499h-15.207c-2.5,0-4.81,1.334-6.06,3.499l-7.604,13.17c-1.25,2.165-1.25,4.832,0,6.997l7.604,13.17c1.25,2.165,3.56,3.499,6.06,3.499Z" fill="#900" stroke-width="0"/>
  <path d="M56.396,43.833h15.207c2.5,0,4.81-1.334,6.06-3.499l7.604-13.17c1.25-2.165,1.25-4.832,0-6.997l-7.604-13.17c-1.25-2.165-3.56-3.499-6.06-3.499h-15.207c-2.5,0-4.81,1.334-6.06,3.499l-7.604,13.17c-1.25,2.165-1.25,4.832,0,6.997l7.604,13.17c1.25,2.165,3.56,3.499,6.06,3.499Z" fill="#900" stroke-width="0"/>
  <path d="M21.466,64h15.207c2.5,0,4.81-1.334,6.06-3.499l7.604-13.17c1.25-2.165,1.25-4.832,0-6.997l-7.604-13.17c-1.25-2.165-3.56-3.499-6.06-3.499h-15.207c-2.5,0-4.81,1.334-6.06,3.499l-7.604,13.17c-1.25,2.165-1.25,4.832,0,6.997l7.604,13.17c1.25,2.165,3.56,3.499,6.06,3.499Z" fill="#fff" stroke-width="0"/>
  <path d="M21.466,104.333h15.207c2.5,0,4.81-1.334,6.06-3.499l7.604-13.17c1.25-2.165,1.25-4.832,0-6.997l-7.604-13.17c-1.25-2.165-3.56-3.499-6.06-3.499h-15.207c-2.5,0-4.81,1.334-6.06,3.499l-7.604,13.17c-1.25,2.165-1.25,4.832,0,6.997l7.604,13.17c1.25,2.165,3.56,3.499,6.06,3.499Z" fill="#fc0" stroke-width="0"/>
  <path d="M80.694,122.752l7.604-13.17s0-.002.001-.002l1.008-1.747h17.226c3.738,0,7.222-2.011,9.091-5.248l7.604-13.17c1.87-3.239,1.869-7.26,0-10.497l-7.604-13.169-1.01-1.748,1.01-1.749,7.604-13.17c1.869-3.237,1.869-7.26,0-10.497l-7.604-13.17c-1.869-3.237-5.353-5.248-9.091-5.248h-17.226l-1.009-1.748s0,0,0-.001l-7.604-13.169C78.825,2.011,75.341,0,71.603,0h-15.207C52.658,0,49.174,2.011,47.305,5.249l-7.604,13.169s-.002.005-.003.007l-1.006,1.742h-17.226c-3.738,0-7.222,2.011-9.091,5.248l-7.604,13.17c-.935,1.619-1.401,3.434-1.401,5.249s.467,3.63,1.401,5.248l2.709,4.692h0s5.904,10.226,5.904,10.226l-5.132,8.89h0s-3.481,6.028-3.481,6.028c-.935,1.619-1.401,3.434-1.401,5.249s.467,3.63,1.401,5.248l7.604,13.17c1.869,3.237,5.353,5.248,9.091,5.248h17.226l1.009,1.747s0,.001,0,.002l1.361,2.358,4.278,7.411h0s1.965,3.402,1.965,3.402c1.869,3.236,5.353,5.247,9.09,5.247h15.207c3.737,0,7.221-2.011,9.091-5.248ZM106.533,67.5c1.245,0,2.405.67,3.028,1.749l7.604,13.169c.312.539.467,1.144.467,1.748s-.155,1.21-.467,1.749l-7.604,13.17c-.622,1.078-1.783,1.748-3.028,1.748h-15.207c-1.245,0-2.406-.67-3.028-1.748l-7.604-13.17c-.623-1.076-.624-2.417,0-3.497l7.604-13.169c.623-1.079,1.783-1.749,3.028-1.749h15.207ZM98.068,27.167h8.465c1.245,0,2.406.67,3.028,1.748l7.604,13.17c.312.539.467,1.144.467,1.748s-.155,1.21-.467,1.749l-7.603,13.169h0s0,0,0,0l-.002.003c-.624,1.076-1.783,1.745-3.026,1.745h-15.207c-1.245,0-2.406-.67-3.028-1.748l-7.604-13.17c-.624-1.078-.623-2.419,0-3.497l7.604-13.17c.622-1.078,1.783-1.748,3.028-1.748h6.742ZM45.761,21.925l6.549-11.344h0s1.058-1.832,1.058-1.832c.623-1.079,1.783-1.749,3.028-1.749h15.207c1.245,0,2.405.67,3.028,1.749l2.741,4.748h0s4.863,8.422,4.863,8.422c.311.539.466,1.143.466,1.747s-.155,1.21-.467,1.749l-7.604,13.17c-.622,1.078-1.783,1.748-3.028,1.748h-15.207c-1.245,0-2.406-.67-3.028-1.748l-7.604-13.17c-.622-1.074-.623-2.411-.003-3.49ZM21.466,60.5c-1.245,0-2.406-.67-3.028-1.748l-7.604-13.17c-.624-1.078-.623-2.419,0-3.497l7.604-13.17c.622-1.078,1.783-1.748,3.028-1.748h15.207c1.245,0,2.406.67,3.028,1.748l7.604,13.17c.312.539.467,1.144.467,1.748s-.155,1.21-.467,1.749l-7.603,13.169c-.623,1.079-1.784,1.749-3.029,1.749h-15.207ZM45.764,62.252l7.604-13.17c.623-1.079,1.783-1.749,3.028-1.749h15.207c1.245,0,2.405.67,3.028,1.749l7.604,13.171c.311.538.467,1.143.467,1.747s-.156,1.21-.468,1.749l-7.604,13.169c-.623,1.079-1.783,1.749-3.028,1.749h-15.207c-1.245,0-2.405-.67-3.028-1.749l-7.604-13.169c-.623-1.077-.624-2.418,0-3.497ZM27.597,100.833h-6.131c-1.245,0-2.406-.67-3.028-1.748l-7.604-13.17c-.623-1.076-.624-2.417,0-3.497l7.604-13.169c.623-1.079,1.783-1.749,3.028-1.749h15.207c1.245,0,2.405.67,3.028,1.749l7.604,13.169c.312.539.467,1.144.467,1.748s-.155,1.21-.467,1.749l-7.604,13.17c-.622,1.078-1.783,1.748-3.028,1.748h-9.076ZM56.396,121c-1.245,0-2.406-.67-3.028-1.748l-4.642-8.041-2.962-5.131c-.623-1.078-.622-2.418,0-3.495l7.604-13.17c.622-1.078,1.783-1.748,3.028-1.748h15.207c1.245,0,2.406.67,3.028,1.748l7.604,13.17c.312.539.467,1.144.467,1.748s-.155,1.208-.466,1.747l-6.442,11.158h0s-1.162,2.014-1.162,2.014c-.623,1.079-1.784,1.749-3.029,1.749h-15.207Z" fill="#000" stroke-width="0"/>
</svg>